<mxfile host="app.diagrams.net" agent="Mozilla/5.0 (Linux; Android 10; K) AppleWebKit/537.36 (KHTML, like Gecko) Chrome/125.0.0.0 Safari/537.36" version="24.7.13">
  <diagram name="Page-1" id="ot2bkM9mR6yF3TWX_jka">
    <mxGraphModel dx="1508" dy="1109" grid="0" gridSize="10" guides="1" tooltips="1" connect="1" arrows="1" fold="1" page="0" pageScale="1" pageWidth="827" pageHeight="1169" math="0" shadow="0">
      <root>
        <mxCell id="0" />
        <mxCell id="1" parent="0" />
        <mxCell id="CvypZJt9Sxr0hTnLN2lD-1" value="" style="rounded=0;whiteSpace=wrap;html=1;" vertex="1" parent="1">
          <mxGeometry x="-199" y="89" width="238" height="234" as="geometry" />
        </mxCell>
        <mxCell id="CvypZJt9Sxr0hTnLN2lD-3" value="" style="ellipse;whiteSpace=wrap;html=1;aspect=fixed;" vertex="1" parent="1">
          <mxGeometry x="151" y="166" width="80" height="80" as="geometry" />
        </mxCell>
        <mxCell id="CvypZJt9Sxr0hTnLN2lD-4" value="" style="ellipse;whiteSpace=wrap;html=1;aspect=fixed;" vertex="1" parent="1">
          <mxGeometry x="336" y="166" width="80" height="80" as="geometry" />
        </mxCell>
        <mxCell id="CvypZJt9Sxr0hTnLN2lD-5" value="" style="triangle;whiteSpace=wrap;html=1;rotation=-90;" vertex="1" parent="1">
          <mxGeometry x="580" y="-41" width="60" height="80" as="geometry" />
        </mxCell>
        <mxCell id="CvypZJt9Sxr0hTnLN2lD-6" value="" style="ellipse;whiteSpace=wrap;html=1;aspect=fixed;" vertex="1" parent="1">
          <mxGeometry x="697" y="131" width="82" height="82" as="geometry" />
        </mxCell>
      </root>
    </mxGraphModel>
  </diagram>
</mxfile>
